<svg width="300" height="300" viewBox="0 0 300 300" fill="none" xmlns="http://www.w3.org/2000/svg">
<path fill-rule="evenodd" clip-rule="evenodd" d="M300 0C249.938 0 202.461 22.2368 170.411 60.6962L56.3911 197.522L122.231 98.7604L12.9418 145.599C-0.937889 151.548 -4.41995 169.631 6.25648 180.309L41.4266 215.478L23.4697 237.026L62.9751 276.53L84.5221 258.573L119.692 293.743C130.369 304.42 148.453 300.938 154.4 287.06L201.239 177.77L102.479 243.61L239.304 129.588C277.763 97.5396 300 50.0629 300 0ZM191.364 108.639C202.272 119.547 219.959 119.547 230.868 108.639C241.776 97.7297 241.776 80.0433 230.868 69.1352C219.959 58.2258 202.272 58.2258 191.364 69.1352C180.455 80.0433 180.455 97.7297 191.364 108.639Z" fill="#7000FF"/>
</svg>
